<svg width="24" height="32" viewBox="0 0 24 32" fill="none" xmlns="http://www.w3.org/2000/svg">
<path d="M19 8.72727H18.18L16.48 1.92C16.3393 1.3587 16.0836 0.873674 15.7474 0.530351C15.4112 0.187028 15.0108 0.00192236 14.6 0H13C12.45 0 12 0.654545 12 1.45455C12 2.25455 12.45 2.90909 13 2.90909H14.6L16.06 8.72727H11.25L10.89 7.27273H10.98C11.53 7.27273 11.98 6.61818 11.98 5.81818C11.98 5.01818 11.53 4.36364 10.98 4.36364H8C7.45 4.36364 7 5.01818 7 5.81818C7 6.61818 7.45 7.27273 8 7.27273H8.75L10.57 14.5455H9.9C9.46 11.3018 7.59 8.90182 5.25 8.74182C2.45 8.53818 0 11.9273 0 16C0 20.0727 2.2 23.2727 5 23.2727C7.46 23.2727 9.45 20.8145 9.9 17.4545H14.1C14.54 20.6982 16.41 23.0982 18.75 23.2582C21.55 23.4473 24 20.0727 24 15.9855C24 11.9273 21.8 8.72727 19 8.72727ZM6 17.4545H7.82C7.4 19.2436 6.22 20.48 4.8 20.3491C3.31 20.2182 2.07 18.3855 2 16.2036C1.93 13.6582 3.27 11.6364 5 11.6364C6.33 11.6364 7.42 12.8436 7.82 14.5455H6C5.45 14.5455 5 15.2 5 16C5 16.8 5.45 17.4545 6 17.4545ZM14.1 14.5455H12.7L11.97 11.6364H15C14.56 12.48 14.24 13.4545 14.1 14.5455ZM18.88 20.3636C17.34 20.2764 16.04 18.3709 16 16.1164C15.98 14.72 16.39 13.4982 17.05 12.6836L17.67 15.1564C17.86 15.9127 18.43 16.3055 18.95 16.0291C19.47 15.7527 19.74 14.9236 19.55 14.1673L18.92 11.6509L18.93 11.6364C19.3309 11.6165 19.7305 11.715 20.1045 11.9259C20.4785 12.1369 20.8193 12.4559 21.1062 12.8637C21.3932 13.2715 21.6203 13.7597 21.7739 14.2987C21.9275 14.8378 22.0044 15.4165 22 16C22 18.5018 20.62 20.4509 18.88 20.3636ZM11 27.6364H7L13 32V29.0909H17L11 24.7273V27.6364Z" fill="#B72D2D"/>
</svg>
