<svg width="16" height="13" viewBox="0 0 16 13" fill="none" xmlns="http://www.w3.org/2000/svg">
<path d="M14.4006 0H1.59942C0.720029 0 0.00768021 0.731214 0.00768021 1.62524L0 11.3748C0 12.2688 0.720029 13 1.59942 13H14.4006C15.28 13 16 12.2688 16 11.3748V1.62524C16 0.731214 15.28 0 14.4006 0ZM14.0799 3.45328L8.42434 7.045C8.29674 7.12478 8.14984 7.16703 8 7.16703C7.85016 7.16703 7.70326 7.12478 7.57566 7.045L1.92008 3.45328C1.84097 3.40697 1.77187 3.34496 1.71688 3.27094C1.6619 3.19692 1.62216 3.1124 1.60005 3.02244C1.57793 2.93248 1.57389 2.83892 1.58816 2.74734C1.60243 2.65576 1.63473 2.56803 1.68312 2.4894C1.73151 2.41078 1.79501 2.34286 1.86981 2.2897C1.94462 2.23653 2.02921 2.19922 2.11852 2.17999C2.20784 2.16076 2.30006 2.16 2.38967 2.17775C2.47929 2.19551 2.56446 2.23142 2.64011 2.28334L8 5.68787L13.3599 2.28334C13.4355 2.23142 13.5207 2.19551 13.6103 2.17775C13.6999 2.16 13.7922 2.16076 13.8815 2.17999C13.9708 2.19922 14.0554 2.23653 14.1302 2.2897C14.205 2.34286 14.2685 2.41078 14.3169 2.4894C14.3653 2.56803 14.3976 2.65576 14.4118 2.74734C14.4261 2.83892 14.4221 2.93248 14.4 3.02244C14.3778 3.1124 14.3381 3.19692 14.2831 3.27094C14.2281 3.34496 14.159 3.40697 14.0799 3.45328Z" fill="#C82828"/>
</svg>
