<svg width="28" height="23" viewBox="0 0 28 23" fill="none" xmlns="http://www.w3.org/2000/svg">
<path d="M20.4545 17.7733C18.6136 17.7733 17.4545 18.3333 16.4318 18.84C15.5455 19.28 14.8227 19.64 13.6364 19.64C12.4091 19.64 11.7273 19.3067 10.8409 18.84C9.81818 18.3333 8.7 17.7733 6.81818 17.7733C4.93636 17.7733 3.81818 18.3333 2.79545 18.84C2.20909 19.1333 1.69091 19.3867 1.06364 19.5333C0.45 19.6667 0 20.1467 0 20.7467V20.88C0 21.68 0.763637 22.2533 1.55455 22.0933C2.56364 21.8933 3.32727 21.52 4.02273 21.1733C4.90909 20.7333 5.61818 20.3733 6.81818 20.3733C8.01818 20.3733 8.72727 20.7067 9.61364 21.1733C10.6364 21.68 11.7545 22.24 13.6364 22.24C15.5182 22.24 16.6364 21.68 17.6591 21.1733C18.5455 20.7333 19.2682 20.3733 20.4545 20.3733C21.6818 20.3733 22.3636 20.7067 23.25 21.1733C23.9591 21.52 24.7227 21.9067 25.7455 22.1067C25.9297 22.1418 26.1196 22.137 26.3017 22.0925C26.4838 22.048 26.6537 21.965 26.7993 21.8493C26.945 21.7335 27.0629 21.5879 27.1447 21.4228C27.2265 21.2576 27.2702 21.0768 27.2727 20.8933V20.7733C27.2727 20.16 26.8091 19.68 26.1955 19.5467C25.5682 19.4133 25.0636 19.16 24.4773 18.8533C23.4545 18.3333 22.2955 17.7733 20.4545 17.7733ZM20.4545 11.84C18.6136 11.84 17.4545 12.4133 16.4318 12.9067C15.5455 13.3333 14.8227 13.7067 13.6364 13.7067C12.4091 13.7067 11.7273 13.3733 10.8409 12.9067C9.81818 12.4 8.7 11.84 6.81818 11.84C4.93636 11.84 3.81818 12.4133 2.79545 12.9067C2.20909 13.1867 1.69091 13.4533 1.05 13.6C0.45 13.7333 0 14.2133 0 14.8133V14.9467C7.79288e-05 15.131 0.042167 15.3129 0.123205 15.4793C0.204244 15.6457 0.322194 15.7923 0.468476 15.9085C0.614757 16.0247 0.785692 16.1076 0.968846 16.1511C1.152 16.1946 1.34277 16.1976 1.52727 16.16C2.55 15.96 3.31364 15.5733 4.02273 15.24C4.90909 14.7733 5.59091 14.44 6.81818 14.44C8.04545 14.44 8.72727 14.7733 9.61364 15.24C10.6364 15.7467 11.7545 16.3067 13.6364 16.3067C15.5182 16.3067 16.6364 15.7333 17.6591 15.24C18.5455 14.7733 19.2273 14.44 20.4545 14.44C21.6818 14.44 22.3636 14.7733 23.25 15.24C23.9591 15.5867 24.7227 15.9733 25.7455 16.1733C25.9308 16.2087 26.1218 16.2036 26.3049 16.1583C26.488 16.1131 26.6586 16.0289 26.8045 15.9117C26.9505 15.7945 27.0681 15.6472 27.149 15.4804C27.23 15.3136 27.2722 15.1313 27.2727 14.9467V14.8267C27.2727 14.2133 26.8091 13.7333 26.1955 13.6C25.5682 13.4667 25.0636 13.2133 24.4773 12.9067C23.4545 12.4 22.2955 11.84 20.4545 11.84ZM24.4773 1.06667C23.4545 0.56 22.3227 0 20.4545 0C18.5864 0 17.4545 0.56 16.4318 1.06667C15.5455 1.49333 14.8227 1.86667 13.6364 1.86667C12.4091 1.86667 11.7273 1.53333 10.8409 1.06667C9.81818 0.573333 8.7 0 6.81818 0C4.93636 0 3.81818 0.56 2.79545 1.06667C2.20909 1.36 1.69091 1.61333 1.06364 1.76C0.45 1.89333 0 2.37333 0 2.97333V3.06667C0 3.86667 0.736364 4.45333 1.52727 4.29333C2.55 4.09333 3.31364 3.70667 4.02273 3.37333C4.90909 2.93333 5.61818 2.57333 6.81818 2.57333C8.01818 2.57333 8.72727 2.90667 9.61364 3.37333C10.6364 3.88 11.7545 4.44 13.6364 4.44C15.5182 4.44 16.6364 3.86667 17.6591 3.37333C18.5455 2.94667 19.2682 2.57333 20.4545 2.57333C21.6818 2.57333 22.3636 2.90667 23.25 3.37333C23.9591 3.72 24.7227 4.10667 25.7455 4.30667C25.9308 4.34202 26.1218 4.3369 26.3049 4.29167C26.488 4.24644 26.6586 4.16221 26.8045 4.04501C26.9505 3.92781 27.0681 3.78053 27.149 3.61371C27.23 3.44689 27.2722 3.26464 27.2727 3.08V2.96C27.2727 2.34667 26.8091 1.86667 26.1955 1.73333C25.5682 1.6 25.0636 1.36 24.4773 1.06667ZM20.4545 5.90667C18.6136 5.90667 17.4545 6.48 16.4318 6.97333C15.5455 7.44 14.8636 7.77333 13.6364 7.77333C12.4091 7.77333 11.7273 7.44 10.8409 6.97333C9.81818 6.46667 8.7 5.90667 6.81818 5.90667C4.93636 5.90667 3.81818 6.48 2.79545 6.97333C2.20909 7.28 1.70455 7.53333 1.07727 7.66667C0.463636 7.8 0 8.28 0 8.89333V9.01333C7.79288e-05 9.19762 0.042167 9.37958 0.123205 9.54597C0.204244 9.71236 0.322194 9.85899 0.468476 9.9752C0.614757 10.0914 0.785692 10.1743 0.968846 10.2178C1.152 10.2613 1.34277 10.2643 1.52727 10.2267C2.55 10.0267 3.31364 9.64 4.02273 9.30667C4.90909 8.88 5.63182 8.50667 6.81818 8.50667C8.00455 8.50667 8.72727 8.84 9.61364 9.30667C10.6364 9.81333 11.7545 10.3733 13.6364 10.3733C15.5182 10.3733 16.6364 9.8 17.6591 9.30667C18.5455 8.88 19.2682 8.50667 20.4545 8.50667C21.6818 8.50667 22.3636 8.84 23.25 9.30667C23.9591 9.65333 24.7227 10.04 25.7455 10.24C25.9297 10.2752 26.1196 10.2703 26.3017 10.2259C26.4838 10.1814 26.6537 10.0983 26.7993 9.98261C26.945 9.86688 27.0629 9.72128 27.1447 9.55609C27.2265 9.39091 27.2702 9.21018 27.2727 9.02667V8.90667C27.2727 8.29333 26.8091 7.81333 26.1955 7.68C25.5682 7.54667 25.0636 7.29333 24.4773 6.98667C23.4545 6.46667 22.2955 5.90667 20.4545 5.90667Z" fill="#C82828"/>
</svg>
