<svg width="217" height="51" viewBox="0 0 217 51" fill="none" xmlns="http://www.w3.org/2000/svg">
<g filter="url(#filter0_d_14_127)">
<rect x="2.5" y="1" width="212" height="46.6491" rx="10" fill="#2E2E2E" shape-rendering="crispEdges"/>
<path d="M39.516 15.5725V32.3245H36.156V15.5725H39.516ZM50.2037 18.8365C51.7877 18.8365 53.0677 19.3405 54.0437 20.3485C55.0197 21.3405 55.5077 22.7325 55.5077 24.5245V32.3245H52.1477V24.9805C52.1477 23.9245 51.8837 23.1165 51.3557 22.5565C50.8277 21.9805 50.1077 21.6925 49.1957 21.6925C48.2677 21.6925 47.5317 21.9805 46.9877 22.5565C46.4597 23.1165 46.1957 23.9245 46.1957 24.9805V32.3245H42.8357V19.0285H46.1957V20.6845C46.6437 20.1085 47.2117 19.6605 47.8997 19.3405C48.6037 19.0045 49.3717 18.8365 50.2037 18.8365ZM63.7909 32.5405C62.7029 32.5405 61.7269 32.3485 60.8629 31.9645C59.9989 31.5645 59.3109 31.0285 58.7989 30.3565C58.3029 29.6845 58.0309 28.9405 57.9829 28.1245H61.3669C61.4309 28.6365 61.6789 29.0605 62.1109 29.3965C62.5589 29.7325 63.1109 29.9005 63.7669 29.9005C64.4069 29.9005 64.9029 29.7725 65.2549 29.5165C65.6229 29.2605 65.8069 28.9325 65.8069 28.5325C65.8069 28.1005 65.5829 27.7805 65.1349 27.5725C64.7029 27.3485 64.0069 27.1085 63.0469 26.8525C62.0549 26.6125 61.2389 26.3645 60.5989 26.1085C59.9749 25.8525 59.4309 25.4605 58.9669 24.9325C58.5189 24.4045 58.2949 23.6925 58.2949 22.7965C58.2949 22.0605 58.5029 21.3885 58.9189 20.7805C59.3509 20.1725 59.9589 19.6925 60.7429 19.3405C61.5429 18.9885 62.4789 18.8125 63.5509 18.8125C65.1349 18.8125 66.3989 19.2125 67.3429 20.0125C68.2869 20.7965 68.8069 21.8605 68.9029 23.2045H65.6869C65.6389 22.6765 65.4149 22.2605 65.0149 21.9565C64.6309 21.6365 64.1109 21.4765 63.4549 21.4765C62.8469 21.4765 62.3749 21.5885 62.0389 21.8125C61.7189 22.0365 61.5589 22.3485 61.5589 22.7485C61.5589 23.1965 61.7829 23.5405 62.2309 23.7805C62.6789 24.0045 63.3749 24.2365 64.3189 24.4765C65.2789 24.7165 66.0709 24.9645 66.6949 25.2205C67.3189 25.4765 67.8549 25.8765 68.3029 26.4205C68.7669 26.9485 69.0069 27.6525 69.0229 28.5325C69.0229 29.3005 68.8069 29.9885 68.3749 30.5965C67.9589 31.2045 67.3509 31.6845 66.5509 32.0365C65.7669 32.3725 64.8469 32.5405 63.7909 32.5405ZM70.917 25.6765C70.917 24.3005 71.197 23.1005 71.757 22.0765C72.317 21.0365 73.093 20.2365 74.085 19.6765C75.077 19.1005 76.213 18.8125 77.493 18.8125C79.141 18.8125 80.501 19.2285 81.573 20.0605C82.661 20.8765 83.389 22.0285 83.757 23.5165H80.133C79.941 22.9405 79.613 22.4925 79.149 22.1725C78.701 21.8365 78.141 21.6685 77.469 21.6685C76.509 21.6685 75.749 22.0205 75.189 22.7245C74.629 23.4125 74.349 24.3965 74.349 25.6765C74.349 26.9405 74.629 27.9245 75.189 28.6285C75.749 29.3165 76.509 29.6605 77.469 29.6605C78.829 29.6605 79.717 29.0525 80.133 27.8365H83.757C83.389 29.2765 82.661 30.4205 81.573 31.2685C80.485 32.1165 79.125 32.5405 77.493 32.5405C76.213 32.5405 75.077 32.2605 74.085 31.7005C73.093 31.1245 72.317 30.3245 71.757 29.3005C71.197 28.2605 70.917 27.0525 70.917 25.6765ZM89.5785 21.0925C90.0105 20.3885 90.5705 19.8365 91.2585 19.4365C91.9625 19.0365 92.7625 18.8365 93.6585 18.8365V22.3645H92.7705C91.7145 22.3645 90.9145 22.6125 90.3705 23.1085C89.8425 23.6045 89.5785 24.4685 89.5785 25.7005V32.3245H86.2185V19.0285H89.5785V21.0925ZM108.282 25.3885C108.282 25.8685 108.25 26.3005 108.186 26.6845H98.4656C98.5456 27.6445 98.8816 28.3965 99.4736 28.9405C100.066 29.4845 100.794 29.7565 101.658 29.7565C102.906 29.7565 103.794 29.2205 104.322 28.1485H107.946C107.562 29.4285 106.826 30.4845 105.738 31.3165C104.65 32.1325 103.314 32.5405 101.73 32.5405C100.45 32.5405 99.2976 32.2605 98.2736 31.7005C97.2656 31.1245 96.4736 30.3165 95.8976 29.2765C95.3376 28.2365 95.0576 27.0365 95.0576 25.6765C95.0576 24.3005 95.3376 23.0925 95.8976 22.0525C96.4576 21.0125 97.2416 20.2125 98.2496 19.6525C99.2576 19.0925 100.418 18.8125 101.73 18.8125C102.994 18.8125 104.122 19.0845 105.114 19.6285C106.122 20.1725 106.898 20.9485 107.442 21.9565C108.002 22.9485 108.282 24.0925 108.282 25.3885ZM104.802 24.4285C104.786 23.5645 104.474 22.8765 103.866 22.3645C103.258 21.8365 102.514 21.5725 101.634 21.5725C100.802 21.5725 100.098 21.8285 99.5216 22.3405C98.9616 22.8365 98.6176 23.5325 98.4896 24.4285H104.802ZM116.278 29.2285L119.638 19.0285H123.214L118.294 32.3245H114.214L109.318 19.0285H112.918L116.278 29.2285ZM124.237 25.6285C124.237 24.2845 124.501 23.0925 125.029 22.0525C125.573 21.0125 126.301 20.2125 127.213 19.6525C128.141 19.0925 129.173 18.8125 130.309 18.8125C131.301 18.8125 132.165 19.0125 132.901 19.4125C133.653 19.8125 134.253 20.3165 134.701 20.9245V19.0285H138.085V32.3245H134.701V30.3805C134.269 31.0045 133.669 31.5245 132.901 31.9405C132.149 32.3405 131.277 32.5405 130.285 32.5405C129.165 32.5405 128.141 32.2525 127.213 31.6765C126.301 31.1005 125.573 30.2925 125.029 29.2525C124.501 28.1965 124.237 26.9885 124.237 25.6285ZM134.701 25.6765C134.701 24.8605 134.541 24.1645 134.221 23.5885C133.901 22.9965 133.469 22.5485 132.925 22.2445C132.381 21.9245 131.797 21.7645 131.173 21.7645C130.549 21.7645 129.973 21.9165 129.445 22.2205C128.917 22.5245 128.485 22.9725 128.149 23.5645C127.829 24.1405 127.669 24.8285 127.669 25.6285C127.669 26.4285 127.829 27.1325 128.149 27.7405C128.485 28.3325 128.917 28.7885 129.445 29.1085C129.989 29.4285 130.565 29.5885 131.173 29.5885C131.797 29.5885 132.381 29.4365 132.925 29.1325C133.469 28.8125 133.901 28.3645 134.221 27.7885C134.541 27.1965 134.701 26.4925 134.701 25.6765ZM151.591 22.3405V25.1725H141.415V22.3405H151.591ZM160.447 32.5405C159.359 32.5405 158.383 32.3485 157.519 31.9645C156.655 31.5645 155.967 31.0285 155.455 30.3565C154.959 29.6845 154.687 28.9405 154.639 28.1245H158.023C158.087 28.6365 158.335 29.0605 158.767 29.3965C159.215 29.7325 159.767 29.9005 160.423 29.9005C161.063 29.9005 161.559 29.7725 161.911 29.5165C162.279 29.2605 162.463 28.9325 162.463 28.5325C162.463 28.1005 162.239 27.7805 161.791 27.5725C161.359 27.3485 160.663 27.1085 159.703 26.8525C158.711 26.6125 157.895 26.3645 157.255 26.1085C156.631 25.8525 156.087 25.4605 155.623 24.9325C155.175 24.4045 154.951 23.6925 154.951 22.7965C154.951 22.0605 155.159 21.3885 155.575 20.7805C156.007 20.1725 156.615 19.6925 157.399 19.3405C158.199 18.9885 159.135 18.8125 160.207 18.8125C161.791 18.8125 163.055 19.2125 163.999 20.0125C164.943 20.7965 165.463 21.8605 165.559 23.2045H162.343C162.295 22.6765 162.071 22.2605 161.671 21.9565C161.287 21.6365 160.767 21.4765 160.111 21.4765C159.503 21.4765 159.031 21.5885 158.695 21.8125C158.375 22.0365 158.215 22.3485 158.215 22.7485C158.215 23.1965 158.439 23.5405 158.887 23.7805C159.335 24.0045 160.031 24.2365 160.975 24.4765C161.935 24.7165 162.727 24.9645 163.351 25.2205C163.975 25.4765 164.511 25.8765 164.959 26.4205C165.423 26.9485 165.663 27.6525 165.679 28.5325C165.679 29.3005 165.463 29.9885 165.031 30.5965C164.615 31.2045 164.007 31.6845 163.207 32.0365C162.423 32.3725 161.503 32.5405 160.447 32.5405ZM180.797 25.3885C180.797 25.8685 180.765 26.3005 180.701 26.6845H170.981C171.061 27.6445 171.397 28.3965 171.989 28.9405C172.581 29.4845 173.309 29.7565 174.173 29.7565C175.421 29.7565 176.309 29.2205 176.837 28.1485H180.461C180.077 29.4285 179.341 30.4845 178.253 31.3165C177.165 32.1325 175.829 32.5405 174.245 32.5405C172.965 32.5405 171.813 32.2605 170.789 31.7005C169.781 31.1245 168.989 30.3165 168.413 29.2765C167.853 28.2365 167.573 27.0365 167.573 25.6765C167.573 24.3005 167.853 23.0925 168.413 22.0525C168.973 21.0125 169.757 20.2125 170.765 19.6525C171.773 19.0925 172.933 18.8125 174.245 18.8125C175.509 18.8125 176.637 19.0845 177.629 19.6285C178.637 20.1725 179.413 20.9485 179.957 21.9565C180.517 22.9485 180.797 24.0925 180.797 25.3885ZM177.317 24.4285C177.301 23.5645 176.989 22.8765 176.381 22.3645C175.773 21.8365 175.029 21.5725 174.149 21.5725C173.317 21.5725 172.613 21.8285 172.037 22.3405C171.477 22.8365 171.133 23.5325 171.005 24.4285H177.317Z" fill="#CCCCCC" fill-opacity="0.8"/>
</g>
<defs>
<filter id="filter0_d_14_127" x="0.5" y="0" width="216" height="50.6492" filterUnits="userSpaceOnUse" color-interpolation-filters="sRGB">
<feFlood flood-opacity="0" result="BackgroundImageFix"/>
<feColorMatrix in="SourceAlpha" type="matrix" values="0 0 0 0 0 0 0 0 0 0 0 0 0 0 0 0 0 0 127 0" result="hardAlpha"/>
<feOffset dy="1"/>
<feGaussianBlur stdDeviation="1"/>
<feComposite in2="hardAlpha" operator="out"/>
<feColorMatrix type="matrix" values="0 0 0 0 0 0 0 0 0 0 0 0 0 0 0 0 0 0 0.1 0"/>
<feBlend mode="normal" in2="BackgroundImageFix" result="effect1_dropShadow_14_127"/>
<feBlend mode="normal" in="SourceGraphic" in2="effect1_dropShadow_14_127" result="shape"/>
</filter>
</defs>
</svg>
