<svg width="216" height="50" viewBox="0 0 216 50" fill="none" xmlns="http://www.w3.org/2000/svg">
<g filter="url(#filter0_d_14_154)">
<rect x="2" y="1" width="212" height="46" rx="10" fill="url(#paint0_linear_14_154)" shape-rendering="crispEdges"/>
<path d="M39.016 15.248V32H35.656V15.248H39.016ZM49.7037 18.512C51.2877 18.512 52.5677 19.016 53.5437 20.024C54.5197 21.016 55.0077 22.408 55.0077 24.2V32H51.6477V24.656C51.6477 23.6 51.3837 22.792 50.8557 22.232C50.3277 21.656 49.6077 21.368 48.6957 21.368C47.7677 21.368 47.0317 21.656 46.4877 22.232C45.9597 22.792 45.6957 23.6 45.6957 24.656V32H42.3357V18.704H45.6957V20.36C46.1437 19.784 46.7117 19.336 47.3997 19.016C48.1037 18.68 48.8717 18.512 49.7037 18.512ZM63.2909 32.216C62.2029 32.216 61.2269 32.024 60.3629 31.64C59.4989 31.24 58.8109 30.704 58.2989 30.032C57.8029 29.36 57.5309 28.616 57.4829 27.8H60.8669C60.9309 28.312 61.1789 28.736 61.6109 29.072C62.0589 29.408 62.6109 29.576 63.2669 29.576C63.9069 29.576 64.4029 29.448 64.7549 29.192C65.1229 28.936 65.3069 28.608 65.3069 28.208C65.3069 27.776 65.0829 27.456 64.6349 27.248C64.2029 27.024 63.5069 26.784 62.5469 26.528C61.5549 26.288 60.7389 26.04 60.0989 25.784C59.4749 25.528 58.9309 25.136 58.4669 24.608C58.0189 24.08 57.7949 23.368 57.7949 22.472C57.7949 21.736 58.0029 21.064 58.4189 20.456C58.8509 19.848 59.4589 19.368 60.2429 19.016C61.0429 18.664 61.9789 18.488 63.0509 18.488C64.6349 18.488 65.8989 18.888 66.8429 19.688C67.7869 20.472 68.3069 21.536 68.4029 22.88H65.1869C65.1389 22.352 64.9149 21.936 64.5149 21.632C64.1309 21.312 63.6109 21.152 62.9549 21.152C62.3469 21.152 61.8749 21.264 61.5389 21.488C61.2189 21.712 61.0589 22.024 61.0589 22.424C61.0589 22.872 61.2829 23.216 61.7309 23.456C62.1789 23.68 62.8749 23.912 63.8189 24.152C64.7789 24.392 65.5709 24.64 66.1949 24.896C66.8189 25.152 67.3549 25.552 67.8029 26.096C68.2669 26.624 68.5069 27.328 68.5229 28.208C68.5229 28.976 68.3069 29.664 67.8749 30.272C67.4589 30.88 66.8509 31.36 66.0509 31.712C65.2669 32.048 64.3469 32.216 63.2909 32.216ZM70.417 25.352C70.417 23.976 70.697 22.776 71.257 21.752C71.817 20.712 72.593 19.912 73.585 19.352C74.577 18.776 75.713 18.488 76.993 18.488C78.641 18.488 80.001 18.904 81.073 19.736C82.161 20.552 82.889 21.704 83.257 23.192H79.633C79.441 22.616 79.113 22.168 78.649 21.848C78.201 21.512 77.641 21.344 76.969 21.344C76.009 21.344 75.249 21.696 74.689 22.4C74.129 23.088 73.849 24.072 73.849 25.352C73.849 26.616 74.129 27.6 74.689 28.304C75.249 28.992 76.009 29.336 76.969 29.336C78.329 29.336 79.217 28.728 79.633 27.512H83.257C82.889 28.952 82.161 30.096 81.073 30.944C79.985 31.792 78.625 32.216 76.993 32.216C75.713 32.216 74.577 31.936 73.585 31.376C72.593 30.8 71.817 30 71.257 28.976C70.697 27.936 70.417 26.728 70.417 25.352ZM89.0785 20.768C89.5105 20.064 90.0705 19.512 90.7585 19.112C91.4625 18.712 92.2625 18.512 93.1585 18.512V22.04H92.2705C91.2145 22.04 90.4145 22.288 89.8705 22.784C89.3425 23.28 89.0785 24.144 89.0785 25.376V32H85.7185V18.704H89.0785V20.768ZM107.782 25.064C107.782 25.544 107.75 25.976 107.686 26.36H97.9656C98.0456 27.32 98.3816 28.072 98.9736 28.616C99.5656 29.16 100.294 29.432 101.158 29.432C102.406 29.432 103.294 28.896 103.822 27.824H107.446C107.062 29.104 106.326 30.16 105.238 30.992C104.15 31.808 102.814 32.216 101.23 32.216C99.9496 32.216 98.7976 31.936 97.7736 31.376C96.7656 30.8 95.9736 29.992 95.3976 28.952C94.8376 27.912 94.5576 26.712 94.5576 25.352C94.5576 23.976 94.8376 22.768 95.3976 21.728C95.9576 20.688 96.7416 19.888 97.7496 19.328C98.7576 18.768 99.9176 18.488 101.23 18.488C102.494 18.488 103.622 18.76 104.614 19.304C105.622 19.848 106.398 20.624 106.942 21.632C107.502 22.624 107.782 23.768 107.782 25.064ZM104.302 24.104C104.286 23.24 103.974 22.552 103.366 22.04C102.758 21.512 102.014 21.248 101.134 21.248C100.302 21.248 99.5976 21.504 99.0216 22.016C98.4616 22.512 98.1176 23.208 97.9896 24.104H104.302ZM115.778 28.904L119.138 18.704H122.714L117.794 32H113.714L108.818 18.704H112.418L115.778 28.904ZM123.737 25.304C123.737 23.96 124.001 22.768 124.529 21.728C125.073 20.688 125.801 19.888 126.713 19.328C127.641 18.768 128.673 18.488 129.809 18.488C130.801 18.488 131.665 18.688 132.401 19.088C133.153 19.488 133.753 19.992 134.201 20.6V18.704H137.585V32H134.201V30.056C133.769 30.68 133.169 31.2 132.401 31.616C131.649 32.016 130.777 32.216 129.785 32.216C128.665 32.216 127.641 31.928 126.713 31.352C125.801 30.776 125.073 29.968 124.529 28.928C124.001 27.872 123.737 26.664 123.737 25.304ZM134.201 25.352C134.201 24.536 134.041 23.84 133.721 23.264C133.401 22.672 132.969 22.224 132.425 21.92C131.881 21.6 131.297 21.44 130.673 21.44C130.049 21.44 129.473 21.592 128.945 21.896C128.417 22.2 127.985 22.648 127.649 23.24C127.329 23.816 127.169 24.504 127.169 25.304C127.169 26.104 127.329 26.808 127.649 27.416C127.985 28.008 128.417 28.464 128.945 28.784C129.489 29.104 130.065 29.264 130.673 29.264C131.297 29.264 131.881 29.112 132.425 28.808C132.969 28.488 133.401 28.04 133.721 27.464C134.041 26.872 134.201 26.168 134.201 25.352ZM151.091 22.016V24.848H140.915V22.016H151.091ZM159.947 32.216C158.859 32.216 157.883 32.024 157.019 31.64C156.155 31.24 155.467 30.704 154.955 30.032C154.459 29.36 154.187 28.616 154.139 27.8H157.523C157.587 28.312 157.835 28.736 158.267 29.072C158.715 29.408 159.267 29.576 159.923 29.576C160.563 29.576 161.059 29.448 161.411 29.192C161.779 28.936 161.963 28.608 161.963 28.208C161.963 27.776 161.739 27.456 161.291 27.248C160.859 27.024 160.163 26.784 159.203 26.528C158.211 26.288 157.395 26.04 156.755 25.784C156.131 25.528 155.587 25.136 155.123 24.608C154.675 24.08 154.451 23.368 154.451 22.472C154.451 21.736 154.659 21.064 155.075 20.456C155.507 19.848 156.115 19.368 156.899 19.016C157.699 18.664 158.635 18.488 159.707 18.488C161.291 18.488 162.555 18.888 163.499 19.688C164.443 20.472 164.963 21.536 165.059 22.88H161.843C161.795 22.352 161.571 21.936 161.171 21.632C160.787 21.312 160.267 21.152 159.611 21.152C159.003 21.152 158.531 21.264 158.195 21.488C157.875 21.712 157.715 22.024 157.715 22.424C157.715 22.872 157.939 23.216 158.387 23.456C158.835 23.68 159.531 23.912 160.475 24.152C161.435 24.392 162.227 24.64 162.851 24.896C163.475 25.152 164.011 25.552 164.459 26.096C164.923 26.624 165.163 27.328 165.179 28.208C165.179 28.976 164.963 29.664 164.531 30.272C164.115 30.88 163.507 31.36 162.707 31.712C161.923 32.048 161.003 32.216 159.947 32.216ZM180.297 25.064C180.297 25.544 180.265 25.976 180.201 26.36H170.481C170.561 27.32 170.897 28.072 171.489 28.616C172.081 29.16 172.809 29.432 173.673 29.432C174.921 29.432 175.809 28.896 176.337 27.824H179.961C179.577 29.104 178.841 30.16 177.753 30.992C176.665 31.808 175.329 32.216 173.745 32.216C172.465 32.216 171.313 31.936 170.289 31.376C169.281 30.8 168.489 29.992 167.913 28.952C167.353 27.912 167.073 26.712 167.073 25.352C167.073 23.976 167.353 22.768 167.913 21.728C168.473 20.688 169.257 19.888 170.265 19.328C171.273 18.768 172.433 18.488 173.745 18.488C175.009 18.488 176.137 18.76 177.129 19.304C178.137 19.848 178.913 20.624 179.457 21.632C180.017 22.624 180.297 23.768 180.297 25.064ZM176.817 24.104C176.801 23.24 176.489 22.552 175.881 22.04C175.273 21.512 174.529 21.248 173.649 21.248C172.817 21.248 172.113 21.504 171.537 22.016C170.977 22.512 170.633 23.208 170.505 24.104H176.817Z" fill="white"/>
</g>
<defs>
<filter id="filter0_d_14_154" x="0" y="0" width="216" height="50" filterUnits="userSpaceOnUse" color-interpolation-filters="sRGB">
<feFlood flood-opacity="0" result="BackgroundImageFix"/>
<feColorMatrix in="SourceAlpha" type="matrix" values="0 0 0 0 0 0 0 0 0 0 0 0 0 0 0 0 0 0 127 0" result="hardAlpha"/>
<feOffset dy="1"/>
<feGaussianBlur stdDeviation="1"/>
<feComposite in2="hardAlpha" operator="out"/>
<feColorMatrix type="matrix" values="0 0 0 0 0 0 0 0 0 0 0 0 0 0 0 0 0 0 0.1 0"/>
<feBlend mode="normal" in2="BackgroundImageFix" result="effect1_dropShadow_14_154"/>
<feBlend mode="normal" in="SourceGraphic" in2="effect1_dropShadow_14_154" result="shape"/>
</filter>
<linearGradient id="paint0_linear_14_154" x1="108" y1="1" x2="108" y2="47" gradientUnits="userSpaceOnUse">
<stop stop-color="#C82828"/>
<stop offset="1" stop-color="#451616"/>
</linearGradient>
</defs>
</svg>
