<svg width="28" height="22" viewBox="0 0 28 22" fill="none" xmlns="http://www.w3.org/2000/svg">
<path d="M23.8103 8.02572C23.6758 8.22009 23.5962 8.44573 23.5794 8.67985C23.5626 8.91396 23.6094 9.14826 23.7149 9.35905C24.0531 10.1311 24.2917 10.9417 24.424 11.7724C24.775 13.9192 24.4467 16.1197 23.4831 18.0791C23.366 18.294 23.1911 18.4734 22.9771 18.598C22.7632 18.7226 22.5184 18.7875 22.2694 18.7857H5.01943C4.76903 18.7862 4.52332 18.7193 4.30924 18.5923C4.09516 18.4653 3.92098 18.2831 3.8058 18.0657C2.93291 16.3343 2.5569 14.4037 2.71787 12.4798C2.87883 10.5559 3.57074 8.71073 4.71982 7.14105C5.8689 5.57137 7.43208 4.336 9.24273 3.56664C11.0534 2.79729 13.0436 2.52278 15.0013 2.77239C15.9918 2.88622 16.9606 3.13765 17.8785 3.51905C18.0941 3.62222 18.3337 3.66791 18.5732 3.65153C18.8126 3.63514 19.0434 3.55725 19.2422 3.42572C19.4493 3.29231 19.6152 3.1062 19.7222 2.88742C19.8292 2.66864 19.8731 2.42548 19.8493 2.1841C19.8254 1.94272 19.7347 1.71228 19.5869 1.51756C19.4391 1.32285 19.2397 1.17124 19.0103 1.07905C16.3761 -0.0254029 13.4528 -0.290162 10.6559 0.322385C7.85896 0.934932 5.33054 2.39364 3.42978 4.4913C1.52903 6.58896 0.352594 9.2189 0.0675926 12.0076C-0.217408 14.7962 0.403515 17.6018 1.84216 20.0257C2.08013 20.4288 2.42183 20.7639 2.8333 20.9978C3.24476 21.2317 3.71167 21.3562 4.18762 21.3591H23.074C23.5546 21.3609 24.0271 21.2386 24.4438 21.0044C24.8604 20.7703 25.2064 20.4327 25.4467 20.0257C26.5 18.241 27.1158 16.2418 27.2459 14.1852C27.3761 12.1286 27.0169 10.0705 26.1967 8.17239C26.0928 7.95607 25.9314 7.77102 25.7293 7.63662C25.5272 7.50222 25.2919 7.4234 25.0479 7.4084C24.804 7.39341 24.5604 7.4428 24.3427 7.5514C24.125 7.66 23.9411 7.82382 23.8103 8.02572Z" fill="#C82828"/>
<path d="M11.715 11.4791C11.2032 11.9794 10.9157 12.6581 10.9157 13.3657C10.9157 13.7161 10.9863 14.0631 11.1235 14.3868C11.2606 14.7105 11.4616 15.0046 11.715 15.2524C11.9684 15.5001 12.2692 15.6967 12.6003 15.8308C12.9313 15.9649 13.2862 16.0339 13.6445 16.0339C14.3683 16.0339 15.0623 15.7528 15.5741 15.2524L23.2923 3.93238L11.715 11.4791Z" fill="#C82828"/>
</svg>
