<svg width="30" height="30" viewBox="0 0 30 30" fill="none" xmlns="http://www.w3.org/2000/svg">
<path d="M15 9.33333C11.9864 9.33333 9.54545 11.72 9.54545 14.6667C9.54545 17.6133 11.9864 20 15 20C18.0136 20 20.4545 17.6133 20.4545 14.6667C20.4545 11.72 18.0136 9.33333 15 9.33333ZM27.1909 13.3333C26.882 10.6295 25.642 8.10872 23.6745 6.18493C21.707 4.26113 19.1289 3.04868 16.3636 2.74667V1.33333C16.3636 0.6 15.75 0 15 0C14.25 0 13.6364 0.6 13.6364 1.33333V2.74667C10.8711 3.04868 8.29301 4.26113 6.32549 6.18493C4.35798 8.10872 3.11797 10.6295 2.80909 13.3333H1.36364C0.613636 13.3333 0 13.9333 0 14.6667C0 15.4 0.613636 16 1.36364 16H2.80909C3.11797 18.7038 4.35798 21.2246 6.32549 23.1484C8.29301 25.0722 10.8711 26.2847 13.6364 26.5867V28C13.6364 28.7333 14.25 29.3333 15 29.3333C15.75 29.3333 16.3636 28.7333 16.3636 28V26.5867C19.1289 26.2847 21.707 25.0722 23.6745 23.1484C25.642 21.2246 26.882 18.7038 27.1909 16H28.6364C29.3864 16 30 15.4 30 14.6667C30 13.9333 29.3864 13.3333 28.6364 13.3333H27.1909ZM15 24C9.72273 24 5.45455 19.8267 5.45455 14.6667C5.45455 9.50667 9.72273 5.33333 15 5.33333C20.2773 5.33333 24.5455 9.50667 24.5455 14.6667C24.5455 19.8267 20.2773 24 15 24Z" fill="#C82828"/>
</svg>
