<svg width="214" height="51" viewBox="0 0 214 51" fill="none" xmlns="http://www.w3.org/2000/svg">
<g filter="url(#filter0_d_19_487)">
<rect x="2" y="1" width="210" height="47" rx="10" fill="url(#paint0_linear_19_487)" shape-rendering="crispEdges"/>
<path d="M35.44 32.668C34.272 32.668 33.216 32.468 32.272 32.068C31.344 31.668 30.608 31.092 30.064 30.34C29.52 29.588 29.24 28.7 29.224 27.676H32.824C32.872 28.364 33.112 28.908 33.544 29.308C33.992 29.708 34.6 29.908 35.368 29.908C36.152 29.908 36.768 29.724 37.216 29.356C37.664 28.972 37.888 28.476 37.888 27.868C37.888 27.372 37.736 26.964 37.432 26.644C37.128 26.324 36.744 26.076 36.28 25.9C35.832 25.708 35.208 25.5 34.408 25.276C33.32 24.956 32.432 24.644 31.744 24.34C31.072 24.02 30.488 23.548 29.992 22.924C29.512 22.284 29.272 21.436 29.272 20.38C29.272 19.388 29.52 18.524 30.016 17.788C30.512 17.052 31.208 16.492 32.104 16.108C33 15.708 34.024 15.508 35.176 15.508C36.904 15.508 38.304 15.932 39.376 16.78C40.464 17.612 41.064 18.78 41.176 20.284H37.48C37.448 19.708 37.2 19.236 36.736 18.868C36.288 18.484 35.688 18.292 34.936 18.292C34.28 18.292 33.752 18.46 33.352 18.796C32.968 19.132 32.776 19.62 32.776 20.26C32.776 20.708 32.92 21.084 33.208 21.388C33.512 21.676 33.88 21.916 34.312 22.108C34.76 22.284 35.384 22.492 36.184 22.732C37.272 23.052 38.16 23.372 38.848 23.692C39.536 24.012 40.128 24.492 40.624 25.132C41.12 25.772 41.368 26.612 41.368 27.652C41.368 28.548 41.136 29.38 40.672 30.148C40.208 30.916 39.528 31.532 38.632 31.996C37.736 32.444 36.672 32.668 35.44 32.668ZM43.417 25.804C43.417 24.46 43.681 23.268 44.209 22.228C44.753 21.188 45.481 20.388 46.393 19.828C47.321 19.268 48.353 18.988 49.489 18.988C50.481 18.988 51.345 19.188 52.081 19.588C52.833 19.988 53.433 20.492 53.881 21.1V19.204H57.265V32.5H53.881V30.556C53.449 31.18 52.849 31.7 52.081 32.116C51.329 32.516 50.457 32.716 49.465 32.716C48.345 32.716 47.321 32.428 46.393 31.852C45.481 31.276 44.753 30.468 44.209 29.428C43.681 28.372 43.417 27.164 43.417 25.804ZM53.881 25.852C53.881 25.036 53.721 24.34 53.401 23.764C53.081 23.172 52.649 22.724 52.105 22.42C51.561 22.1 50.977 21.94 50.353 21.94C49.729 21.94 49.153 22.092 48.625 22.396C48.097 22.7 47.665 23.148 47.329 23.74C47.009 24.316 46.849 25.004 46.849 25.804C46.849 26.604 47.009 27.308 47.329 27.916C47.665 28.508 48.097 28.964 48.625 29.284C49.169 29.604 49.745 29.764 50.353 29.764C50.977 29.764 51.561 29.612 52.105 29.308C52.649 28.988 53.081 28.54 53.401 27.964C53.721 27.372 53.881 26.668 53.881 25.852ZM62.2506 17.62C61.6586 17.62 61.1626 17.436 60.7626 17.068C60.3786 16.684 60.1866 16.212 60.1866 15.652C60.1866 15.092 60.3786 14.628 60.7626 14.26C61.1626 13.876 61.6586 13.684 62.2506 13.684C62.8426 13.684 63.3306 13.876 63.7146 14.26C64.1146 14.628 64.3146 15.092 64.3146 15.652C64.3146 16.212 64.1146 16.684 63.7146 17.068C63.3306 17.436 62.8426 17.62 62.2506 17.62ZM63.9066 19.204V32.5H60.5466V19.204H63.9066ZM70.5863 21.148C71.0183 20.508 71.6103 19.988 72.3623 19.588C73.1303 19.188 74.0023 18.988 74.9783 18.988C76.1143 18.988 77.1383 19.268 78.0503 19.828C78.9783 20.388 79.7063 21.188 80.2343 22.228C80.7783 23.252 81.0503 24.444 81.0503 25.804C81.0503 27.164 80.7783 28.372 80.2343 29.428C79.7063 30.468 78.9783 31.276 78.0503 31.852C77.1383 32.428 76.1143 32.716 74.9783 32.716C73.9863 32.716 73.1143 32.524 72.3623 32.14C71.6263 31.74 71.0343 31.228 70.5863 30.604V32.5H67.2263V14.74H70.5863V21.148ZM77.6183 25.804C77.6183 25.004 77.4503 24.316 77.1143 23.74C76.7943 23.148 76.3623 22.7 75.8183 22.396C75.2903 22.092 74.7143 21.94 74.0903 21.94C73.4823 21.94 72.9063 22.1 72.3623 22.42C71.8343 22.724 71.4023 23.172 71.0663 23.764C70.7463 24.356 70.5863 25.052 70.5863 25.852C70.5863 26.652 70.7463 27.348 71.0663 27.94C71.4023 28.532 71.8343 28.988 72.3623 29.308C72.9063 29.612 73.4823 29.764 74.0903 29.764C74.7143 29.764 75.2903 29.604 75.8183 29.284C76.3623 28.964 76.7943 28.508 77.1143 27.916C77.4503 27.324 77.6183 26.62 77.6183 25.804ZM82.6279 25.804C82.6279 24.46 82.8919 23.268 83.4199 22.228C83.9639 21.188 84.6919 20.388 85.6039 19.828C86.5319 19.268 87.5639 18.988 88.6999 18.988C89.6919 18.988 90.5559 19.188 91.2919 19.588C92.0439 19.988 92.6439 20.492 93.0919 21.1V19.204H96.4759V32.5H93.0919V30.556C92.6599 31.18 92.0599 31.7 91.2919 32.116C90.5399 32.516 89.6679 32.716 88.6759 32.716C87.5559 32.716 86.5319 32.428 85.6039 31.852C84.6919 31.276 83.9639 30.468 83.4199 29.428C82.8919 28.372 82.6279 27.164 82.6279 25.804ZM93.0919 25.852C93.0919 25.036 92.9319 24.34 92.6119 23.764C92.2919 23.172 91.8599 22.724 91.3159 22.42C90.7719 22.1 90.1879 21.94 89.5639 21.94C88.9399 21.94 88.3639 22.092 87.8359 22.396C87.3079 22.7 86.8759 23.148 86.5399 23.74C86.2199 24.316 86.0599 25.004 86.0599 25.804C86.0599 26.604 86.2199 27.308 86.5399 27.916C86.8759 28.508 87.3079 28.964 87.8359 29.284C88.3799 29.604 88.9559 29.764 89.5639 29.764C90.1879 29.764 90.7719 29.612 91.3159 29.308C91.8599 28.988 92.2919 28.54 92.6119 27.964C92.9319 27.372 93.0919 26.668 93.0919 25.852ZM121.988 19.012C123.62 19.012 124.932 19.516 125.924 20.524C126.932 21.516 127.436 22.908 127.436 24.7V32.5H124.076V25.156C124.076 24.116 123.812 23.324 123.284 22.78C122.756 22.22 122.036 21.94 121.124 21.94C120.212 21.94 119.484 22.22 118.94 22.78C118.412 23.324 118.148 24.116 118.148 25.156V32.5H114.788V25.156C114.788 24.116 114.524 23.324 113.996 22.78C113.468 22.22 112.748 21.94 111.836 21.94C110.908 21.94 110.172 22.22 109.628 22.78C109.1 23.324 108.836 24.116 108.836 25.156V32.5H105.476V19.204H108.836V20.812C109.268 20.252 109.82 19.812 110.492 19.492C111.18 19.172 111.932 19.012 112.748 19.012C113.788 19.012 114.716 19.236 115.532 19.684C116.348 20.116 116.98 20.74 117.428 21.556C117.86 20.788 118.484 20.172 119.3 19.708C120.132 19.244 121.028 19.012 121.988 19.012ZM129.761 25.804C129.761 24.46 130.025 23.268 130.553 22.228C131.097 21.188 131.825 20.388 132.737 19.828C133.665 19.268 134.697 18.988 135.833 18.988C136.825 18.988 137.689 19.188 138.425 19.588C139.177 19.988 139.777 20.492 140.225 21.1V19.204H143.609V32.5H140.225V30.556C139.793 31.18 139.193 31.7 138.425 32.116C137.673 32.516 136.801 32.716 135.809 32.716C134.689 32.716 133.665 32.428 132.737 31.852C131.825 31.276 131.097 30.468 130.553 29.428C130.025 28.372 129.761 27.164 129.761 25.804ZM140.225 25.852C140.225 25.036 140.065 24.34 139.745 23.764C139.425 23.172 138.993 22.724 138.449 22.42C137.905 22.1 137.321 21.94 136.697 21.94C136.073 21.94 135.497 22.092 134.969 22.396C134.441 22.7 134.009 23.148 133.673 23.74C133.353 24.316 133.193 25.004 133.193 25.804C133.193 26.604 133.353 27.308 133.673 27.916C134.009 28.508 134.441 28.964 134.969 29.284C135.513 29.604 136.089 29.764 136.697 29.764C137.321 29.764 137.905 29.612 138.449 29.308C138.993 28.988 139.425 28.54 139.745 27.964C140.065 27.372 140.225 26.668 140.225 25.852ZM148.594 17.62C148.002 17.62 147.506 17.436 147.106 17.068C146.722 16.684 146.53 16.212 146.53 15.652C146.53 15.092 146.722 14.628 147.106 14.26C147.506 13.876 148.002 13.684 148.594 13.684C149.186 13.684 149.674 13.876 150.058 14.26C150.458 14.628 150.658 15.092 150.658 15.652C150.658 16.212 150.458 16.684 150.058 17.068C149.674 17.436 149.186 17.62 148.594 17.62ZM150.25 19.204V32.5H146.89V19.204H150.25ZM158.658 32.716C157.57 32.716 156.594 32.524 155.73 32.14C154.866 31.74 154.178 31.204 153.666 30.532C153.17 29.86 152.898 29.116 152.85 28.3H156.234C156.298 28.812 156.546 29.236 156.978 29.572C157.426 29.908 157.978 30.076 158.634 30.076C159.274 30.076 159.77 29.948 160.122 29.692C160.49 29.436 160.674 29.108 160.674 28.708C160.674 28.276 160.45 27.956 160.002 27.748C159.57 27.524 158.874 27.284 157.914 27.028C156.922 26.788 156.106 26.54 155.466 26.284C154.842 26.028 154.298 25.636 153.834 25.108C153.386 24.58 153.162 23.868 153.162 22.972C153.162 22.236 153.37 21.564 153.786 20.956C154.218 20.348 154.826 19.868 155.61 19.516C156.41 19.164 157.346 18.988 158.418 18.988C160.002 18.988 161.266 19.388 162.21 20.188C163.154 20.972 163.674 22.036 163.77 23.38H160.554C160.506 22.852 160.282 22.436 159.882 22.132C159.498 21.812 158.978 21.652 158.322 21.652C157.714 21.652 157.242 21.764 156.906 21.988C156.586 22.212 156.426 22.524 156.426 22.924C156.426 23.372 156.65 23.716 157.098 23.956C157.546 24.18 158.242 24.412 159.186 24.652C160.146 24.892 160.938 25.14 161.562 25.396C162.186 25.652 162.722 26.052 163.17 26.596C163.634 27.124 163.874 27.828 163.89 28.708C163.89 29.476 163.674 30.164 163.242 30.772C162.826 31.38 162.218 31.86 161.418 32.212C160.634 32.548 159.714 32.716 158.658 32.716Z" fill="white"/>
<path d="M175 24.5H186M186 24.5L183.5 21.5M186 24.5L183.5 27.5" stroke="white" stroke-width="2" stroke-linecap="round" stroke-linejoin="round"/>
</g>
<defs>
<filter id="filter0_d_19_487" x="0" y="0" width="214" height="51" filterUnits="userSpaceOnUse" color-interpolation-filters="sRGB">
<feFlood flood-opacity="0" result="BackgroundImageFix"/>
<feColorMatrix in="SourceAlpha" type="matrix" values="0 0 0 0 0 0 0 0 0 0 0 0 0 0 0 0 0 0 127 0" result="hardAlpha"/>
<feOffset dy="1"/>
<feGaussianBlur stdDeviation="1"/>
<feComposite in2="hardAlpha" operator="out"/>
<feColorMatrix type="matrix" values="0 0 0 0 0 0 0 0 0 0 0 0 0 0 0 0 0 0 0.1 0"/>
<feBlend mode="normal" in2="BackgroundImageFix" result="effect1_dropShadow_19_487"/>
<feBlend mode="normal" in="SourceGraphic" in2="effect1_dropShadow_19_487" result="shape"/>
</filter>
<linearGradient id="paint0_linear_19_487" x1="107" y1="1" x2="107" y2="48" gradientUnits="userSpaceOnUse">
<stop stop-color="#C82828"/>
<stop offset="1" stop-color="#451616"/>
</linearGradient>
</defs>
</svg>
