<svg width="22" height="28" viewBox="0 0 22 28" fill="none" xmlns="http://www.w3.org/2000/svg">
<path d="M19.0909 9.33333H17.7273V6.66667C17.7273 2.98667 14.6727 0 10.9091 0C7.14545 0 4.09091 2.98667 4.09091 6.66667V9.33333H2.72727C1.22727 9.33333 0 10.5333 0 12V25.3333C0 26.8 1.22727 28 2.72727 28H19.0909C20.5909 28 21.8182 26.8 21.8182 25.3333V12C21.8182 10.5333 20.5909 9.33333 19.0909 9.33333ZM10.9091 21.3333C9.40909 21.3333 8.18182 20.1333 8.18182 18.6667C8.18182 17.2 9.40909 16 10.9091 16C12.4091 16 13.6364 17.2 13.6364 18.6667C13.6364 20.1333 12.4091 21.3333 10.9091 21.3333ZM6.81818 9.33333V6.66667C6.81818 4.45333 8.64545 2.66667 10.9091 2.66667C13.1727 2.66667 15 4.45333 15 6.66667V9.33333H6.81818Z" fill="#C82828"/>
</svg>
