<svg width="22" height="22" viewBox="0 0 22 22" fill="none" xmlns="http://www.w3.org/2000/svg">
<path d="M2.79564 5.34918C1.01034 7.09509 0.00513092 9.46145 1.95879e-05 11.9303C-0.00509174 14.3992 0.99031 16.7695 2.76836 18.5225C4.77291 13.9892 8.34564 10.2025 12.8047 7.94918C8.95595 11.1334 6.35789 15.526 5.45473 20.3758C9.00018 22.0158 13.3638 21.4158 16.2956 18.5492C20.3729 14.5625 21.5184 3.69585 21.7638 0.709179C21.7724 0.614279 21.7595 0.5187 21.7262 0.42917C21.6929 0.339639 21.64 0.258331 21.5711 0.190966C21.5022 0.123602 21.419 0.0718188 21.3275 0.0392598C21.2359 0.00670077 21.1381 -0.00584255 21.0411 0.00251215C17.9865 0.242512 6.87291 1.36251 2.79564 5.34918Z" fill="#C82828"/>
</svg>
