<svg width="225" height="52" viewBox="0 0 225 52" fill="none" xmlns="http://www.w3.org/2000/svg">
<path d="M27.328 25.992L27.544 30.12C27.192 30.712 26.72 31.248 26.128 31.728C25.536 32.208 24.8 32.6 23.92 32.904C23.04 33.192 22 33.336 20.8 33.336C18.848 33.32 17.136 32.968 15.664 32.28C14.208 31.576 13.08 30.576 12.28 29.28C11.48 27.984 11.08 26.416 11.08 24.576C11.08 22.784 11.472 21.24 12.256 19.944C13.04 18.632 14.16 17.624 15.616 16.92C17.088 16.216 18.84 15.864 20.872 15.864C22.152 15.864 23.296 15.992 24.304 16.248C25.328 16.504 26.184 16.816 26.872 17.184L26.896 21.288H26.68C26.248 19.704 25.544 18.576 24.568 17.904C23.592 17.216 22.448 16.872 21.136 16.872C19.856 16.872 18.76 17.184 17.848 17.808C16.936 18.432 16.232 19.312 15.736 20.448C15.24 21.584 14.992 22.944 14.992 24.528C14.992 26.112 15.224 27.48 15.688 28.632C16.168 29.784 16.84 30.68 17.704 31.32C18.584 31.96 19.616 32.296 20.8 32.328C22.032 32.328 23.072 32.128 23.92 31.728C24.768 31.328 25.448 30.664 25.96 29.736C26.488 28.808 26.88 27.56 27.136 25.992H27.328ZM44.3506 18.6V33H40.9186V18.6H44.3506ZM34.5826 18.6V33H31.1266V18.6H34.5826ZM41.1106 25.344V26.304H34.3666V25.344H41.1106ZM31.1986 31.488V33H29.5426V32.76C29.5426 32.76 29.5826 32.76 29.6626 32.76C29.7586 32.76 29.8146 32.76 29.8306 32.76C30.1826 32.76 30.4866 32.64 30.7426 32.4C30.9986 32.144 31.1266 31.84 31.1266 31.488H31.1986ZM34.5346 31.488H34.5826C34.5986 31.84 34.7346 32.144 34.9906 32.4C35.2466 32.64 35.5506 32.76 35.9026 32.76C35.9026 32.76 35.9426 32.76 36.0226 32.76C36.1186 32.76 36.1666 32.76 36.1666 32.76V33H34.5346V31.488ZM34.5346 20.112V18.6H36.1666V18.84C36.1666 18.84 36.1186 18.84 36.0226 18.84C35.9426 18.84 35.9026 18.84 35.9026 18.84C35.5506 18.84 35.2466 18.96 34.9906 19.2C34.7346 19.44 34.5986 19.744 34.5826 20.112H34.5346ZM31.1986 20.112H31.1266C31.1266 19.744 30.9986 19.44 30.7426 19.2C30.4866 18.96 30.1826 18.84 29.8306 18.84C29.8146 18.84 29.7586 18.84 29.6626 18.84C29.5826 18.84 29.5426 18.84 29.5426 18.84V18.6H31.1986V20.112ZM40.9666 31.488V33H39.3346V32.76C39.3346 32.76 39.3746 32.76 39.4546 32.76C39.5506 32.76 39.5986 32.76 39.5986 32.76C39.9506 32.76 40.2546 32.64 40.5106 32.4C40.7666 32.144 40.8946 31.84 40.8946 31.488H40.9666ZM44.2786 31.488H44.3506C44.3666 31.84 44.4946 32.144 44.7346 32.4C44.9906 32.64 45.3026 32.76 45.6706 32.76C45.6706 32.76 45.7106 32.76 45.7906 32.76C45.8866 32.76 45.9346 32.76 45.9346 32.76V33H44.2786V31.488ZM44.3026 20.112V18.6H45.9586V18.84C45.9586 18.84 45.9106 18.84 45.8146 18.84C45.7186 18.84 45.6706 18.84 45.6706 18.84C45.3026 18.84 44.9906 18.96 44.7346 19.2C44.4946 19.44 44.3746 19.744 44.3746 20.112H44.3026ZM40.9666 20.112H40.8946C40.8946 19.744 40.7666 19.44 40.5106 19.2C40.2546 18.96 39.9506 18.84 39.5986 18.84C39.5986 18.84 39.5506 18.84 39.4546 18.84C39.3746 18.84 39.3346 18.84 39.3346 18.84V18.6H40.9666V20.112ZM52.3934 18.6H54.9854C55.6414 18.6 56.2814 18.672 56.9054 18.816C57.5294 18.944 58.0894 19.16 58.5854 19.464C59.0814 19.752 59.4734 20.152 59.7614 20.664C60.0654 21.16 60.2174 21.784 60.2174 22.536C60.2174 23.096 60.0974 23.656 59.8574 24.216C59.6334 24.76 59.2734 25.232 58.7774 25.632C58.2974 26.032 57.6654 26.296 56.8814 26.424C57.3454 26.568 57.7854 26.848 58.2014 27.264C58.6334 27.68 58.9694 28.072 59.2094 28.44C59.2734 28.568 59.3854 28.776 59.5454 29.064C59.7054 29.336 59.9054 29.656 60.1454 30.024C60.4014 30.376 60.6654 30.744 60.9374 31.128C61.2574 31.56 61.5374 31.896 61.7774 32.136C62.0174 32.36 62.2654 32.52 62.5214 32.616C62.7774 32.712 63.0734 32.76 63.4094 32.76V33H61.3934C60.5294 33 59.7934 32.936 59.1854 32.808C58.5934 32.68 58.0734 32.448 57.6254 32.112C57.1934 31.76 56.7934 31.288 56.4254 30.696C56.2814 30.488 56.1294 30.24 55.9694 29.952C55.8094 29.648 55.6494 29.344 55.4894 29.04C55.3294 28.736 55.1854 28.44 55.0574 28.152C54.9454 27.864 54.8654 27.624 54.8174 27.432C54.6094 26.92 54.3694 26.552 54.0974 26.328C53.8414 26.088 53.6014 25.968 53.3774 25.968V25.752C53.3774 25.752 53.4334 25.752 53.5454 25.752C53.6574 25.752 53.8014 25.752 53.9774 25.752C54.3134 25.752 54.6414 25.696 54.9614 25.584C55.2974 25.456 55.6014 25.224 55.8734 24.888C56.1454 24.536 56.3454 24.024 56.4734 23.352C56.5054 23.256 56.5294 23.12 56.5454 22.944C56.5774 22.768 56.5854 22.568 56.5694 22.344C56.5374 21.752 56.4254 21.28 56.2334 20.928C56.0574 20.56 55.8334 20.288 55.5614 20.112C55.2894 19.92 55.0094 19.792 54.7214 19.728C54.4494 19.648 54.2094 19.608 54.0014 19.608C53.6974 19.592 53.4174 19.592 53.1614 19.608C52.9214 19.608 52.7374 19.6 52.6094 19.584C52.5934 19.584 52.5694 19.504 52.5374 19.344C52.5054 19.168 52.4734 19 52.4414 18.84C52.4094 18.68 52.3934 18.6 52.3934 18.6ZM52.6334 18.6V33H49.1534V18.6H52.6334ZM49.2254 31.488L49.3214 33H47.5934V32.76C47.6094 32.76 47.6494 32.76 47.7134 32.76C47.7934 32.76 47.8494 32.76 47.8814 32.76C48.2334 32.76 48.5294 32.64 48.7694 32.4C49.0254 32.144 49.1614 31.84 49.1774 31.488H49.2254ZM49.2254 20.088H49.1774C49.1614 19.72 49.0254 19.424 48.7694 19.2C48.5294 18.96 48.2414 18.84 47.9054 18.84C47.8574 18.84 47.7934 18.84 47.7134 18.84C47.6494 18.84 47.6094 18.84 47.5934 18.84V18.6H49.3214L49.2254 20.088ZM52.5854 31.488H52.6334C52.6334 31.888 52.7694 32.2 53.0414 32.424C53.3294 32.648 53.6334 32.76 53.9534 32.76C53.9534 32.76 53.9854 32.76 54.0494 32.76C54.1134 32.76 54.1614 32.76 54.1934 32.76V33H52.4654L52.5854 31.488ZM67.2878 18.6L76.5758 32.976H72.5678L63.3278 18.6H67.2878ZM65.8478 31.512C65.6398 31.816 65.6318 32.104 65.8238 32.376C66.0318 32.632 66.2798 32.76 66.5678 32.76C66.5678 32.76 66.6078 32.76 66.6878 32.76C66.7838 32.76 66.8318 32.76 66.8318 32.76V33H61.5518V32.76H61.8398C62.2878 32.76 62.6878 32.648 63.0398 32.424C63.4078 32.184 63.7198 31.904 63.9758 31.584L65.8478 31.512ZM68.4878 25.656L69.5198 26.496L64.7918 32.976L62.9678 32.928L68.4878 25.656ZM71.6318 31.536L75.6878 31.608C75.8958 31.912 76.1838 32.184 76.5518 32.424C76.9358 32.648 77.3518 32.76 77.7998 32.76H78.0878V33H70.6478V32.76C70.6478 32.76 70.6878 32.76 70.7678 32.76C70.8638 32.76 70.9118 32.76 70.9118 32.76C71.1998 32.76 71.4398 32.632 71.6318 32.376C71.8238 32.104 71.8238 31.824 71.6318 31.536ZM69.2078 18.576V18.816C69.2078 18.816 69.1598 18.816 69.0638 18.816C68.9838 18.816 68.9438 18.816 68.9438 18.816C68.6718 18.816 68.4398 18.952 68.2478 19.224C68.0558 19.496 68.0478 19.768 68.2238 20.04L64.2398 19.968C64.0158 19.664 63.7118 19.4 63.3278 19.176C62.9598 18.936 62.5518 18.816 62.1038 18.816H61.8158V18.576H69.2078ZM76.0958 18.6L71.0318 26.016L70.2398 24.768L74.2478 18.6H76.0958ZM77.5838 18.576V18.816H77.2718C76.8398 18.816 76.4318 18.928 76.0478 19.152C75.6798 19.376 75.3838 19.648 75.1598 19.968L73.3118 20.04C73.4878 19.768 73.4798 19.496 73.2878 19.224C73.1118 18.952 72.8798 18.816 72.5918 18.816C72.5918 18.816 72.5438 18.816 72.4478 18.816C72.3678 18.816 72.3278 18.816 72.3278 18.816V18.576H77.5838ZM87.4332 16.272V33H83.8332V16.272H87.4332ZM93.3132 16.176V17.184H77.9532V16.176H93.3132ZM93.3132 17.112V19.944L93.0732 19.92V19.656C93.0732 18.904 92.8492 18.312 92.4012 17.88C91.9692 17.432 91.3772 17.2 90.6252 17.184V17.112H93.3132ZM93.3132 15.744V16.44L90.3852 16.176C90.7372 16.176 91.1052 16.152 91.4892 16.104C91.8892 16.056 92.2572 16 92.5932 15.936C92.9292 15.872 93.1692 15.808 93.3132 15.744ZM83.9052 31.248V33H81.9852V32.76C81.9852 32.76 82.0332 32.76 82.1292 32.76C82.2412 32.76 82.2972 32.76 82.2972 32.76C82.7132 32.76 83.0652 32.616 83.3532 32.328C83.6572 32.024 83.8172 31.664 83.8332 31.248H83.9052ZM87.3612 31.248H87.4332C87.4492 31.664 87.6012 32.024 87.8892 32.328C88.1932 32.616 88.5532 32.76 88.9692 32.76C88.9692 32.76 89.0172 32.76 89.1132 32.76C89.2252 32.76 89.2812 32.76 89.2812 32.76V33H87.3612V31.248ZM80.6172 17.112V17.184C79.8812 17.2 79.2892 17.432 78.8412 17.88C78.4092 18.312 78.1932 18.904 78.1932 19.656V19.92L77.9532 19.944V17.112H80.6172ZM77.9532 15.744C78.1132 15.808 78.3532 15.872 78.6732 15.936C79.0092 16 79.3772 16.056 79.7772 16.104C80.1772 16.152 80.5452 16.176 80.8812 16.176L77.9532 16.44V15.744ZM99.577 18.6V33H96.121V18.6H99.577ZM96.193 31.488V33H94.441V32.76C94.441 32.76 94.489 32.76 94.585 32.76C94.681 32.76 94.737 32.76 94.753 32.76C95.121 32.76 95.441 32.64 95.713 32.4C95.985 32.144 96.121 31.84 96.121 31.488H96.193ZM99.529 31.488H99.577C99.593 31.84 99.729 32.144 99.985 32.4C100.257 32.64 100.585 32.76 100.969 32.76C100.969 32.76 101.009 32.76 101.089 32.76C101.185 32.76 101.241 32.76 101.257 32.76V33H99.529V31.488ZM99.529 20.112V18.6H101.257L101.233 18.84C101.233 18.84 101.193 18.84 101.113 18.84C101.033 18.84 100.985 18.84 100.969 18.84C100.585 18.84 100.257 18.96 99.985 19.2C99.729 19.44 99.593 19.744 99.577 20.112H99.529ZM96.193 20.112H96.121C96.121 19.744 95.985 19.44 95.713 19.2C95.441 18.96 95.113 18.84 94.729 18.84C94.729 18.84 94.681 18.84 94.585 18.84C94.489 18.84 94.441 18.84 94.441 18.84V18.6H96.193V20.112ZM118.983 18.288L119.175 20.76L112.719 31.008C112.719 31.008 112.647 31.144 112.503 31.416C112.359 31.672 112.215 31.984 112.071 32.352C111.943 32.72 111.871 33.088 111.855 33.456H111.639L110.703 31.488L118.983 18.288ZM104.223 31.464V33H101.87V32.76C101.87 32.76 101.926 32.76 102.038 32.76C102.135 32.76 102.183 32.76 102.183 32.76C102.583 32.76 102.927 32.648 103.215 32.424C103.519 32.2 103.703 31.88 103.767 31.464H104.223ZM105.255 31.8C105.238 31.976 105.294 32.184 105.423 32.424C105.551 32.648 105.775 32.76 106.095 32.76H106.431V33H104.991L105.135 31.8H105.255ZM105.639 18.288H105.831L106.647 20.592L105.135 33H103.575L105.639 18.288ZM105.831 18.288L112.935 28.92L111.639 33.456L105.255 23.784L105.831 18.288ZM119.199 18.288L121.311 33H117.639L116.463 24.24L118.983 18.288H119.199ZM120.639 31.464H121.095C121.175 31.88 121.359 32.2 121.647 32.424C121.951 32.648 122.287 32.76 122.655 32.76C122.655 32.76 122.711 32.76 122.823 32.76C122.935 32.76 122.991 32.76 122.991 32.76V33H120.639V31.464ZM117.471 31.8H117.615L117.759 33H116.319V32.76H116.655C117.007 32.76 117.239 32.648 117.351 32.424C117.463 32.184 117.503 31.976 117.471 31.8ZM128.661 18.6V33H125.205V18.6H128.661ZM134.277 32.04L134.829 33H128.613V32.04H134.277ZM133.461 25.392V26.352H128.613V25.392H133.461ZM134.541 18.6V19.56H128.613V18.6H134.541ZM135.813 28.584L134.901 33H130.749L131.493 32.04C132.181 32.04 132.789 31.904 133.317 31.632C133.861 31.344 134.325 30.944 134.709 30.432C135.093 29.904 135.389 29.288 135.597 28.584H135.813ZM133.461 26.304V28.416H133.221V28.224C133.221 27.696 133.053 27.256 132.717 26.904C132.397 26.552 131.957 26.368 131.397 26.352V26.304H133.461ZM133.461 23.328V25.44H131.397V25.392C131.957 25.376 132.397 25.192 132.717 24.84C133.053 24.472 133.221 24.024 133.221 23.496V23.328H133.461ZM134.541 19.512V22.056H134.301V21.84C134.301 21.136 134.109 20.584 133.725 20.184C133.357 19.784 132.821 19.576 132.117 19.56V19.512H134.541ZM134.541 18.24V18.816L132.021 18.6C132.485 18.6 132.973 18.56 133.485 18.48C133.997 18.384 134.349 18.304 134.541 18.24ZM125.253 31.488L125.373 33H123.597V32.76C123.597 32.76 123.645 32.76 123.741 32.76C123.837 32.76 123.893 32.76 123.909 32.76C124.261 32.76 124.557 32.64 124.797 32.4C125.053 32.144 125.189 31.84 125.205 31.488H125.253ZM125.253 20.112H125.205C125.189 19.744 125.053 19.44 124.797 19.2C124.557 18.96 124.261 18.84 123.909 18.84C123.893 18.84 123.837 18.84 123.741 18.84C123.645 18.84 123.597 18.84 123.597 18.84V18.6H125.373L125.253 20.112ZM141.85 18.6H144.154C145.45 18.6 146.498 18.776 147.298 19.128C148.098 19.48 148.698 19.96 149.098 20.568C149.498 21.16 149.714 21.832 149.746 22.584C149.778 23.528 149.586 24.352 149.17 25.056C148.77 25.76 148.226 26.296 147.538 26.664C146.85 27.032 146.098 27.2 145.282 27.168C144.466 27.12 143.658 26.832 142.858 26.304V26.088C142.858 26.088 142.938 26.088 143.098 26.088C143.274 26.088 143.49 26.064 143.746 26.016C144.002 25.952 144.266 25.84 144.538 25.68C144.826 25.52 145.098 25.28 145.354 24.96C145.61 24.64 145.81 24.208 145.954 23.664C146.002 23.472 146.034 23.264 146.05 23.04C146.082 22.8 146.09 22.592 146.074 22.416C146.058 21.536 145.794 20.84 145.282 20.328C144.786 19.8 144.09 19.536 143.194 19.536H142.066C142.066 19.536 142.05 19.464 142.018 19.32C141.986 19.16 141.946 19 141.898 18.84C141.866 18.68 141.85 18.6 141.85 18.6ZM142.114 18.6V33H138.658V18.6H142.114ZM138.706 31.488L138.802 33H137.074V32.76C137.09 32.76 137.138 32.76 137.218 32.76C137.298 32.76 137.346 32.76 137.362 32.76C137.714 32.76 138.01 32.64 138.25 32.4C138.506 32.144 138.642 31.84 138.658 31.488H138.706ZM138.706 20.088H138.658C138.642 19.72 138.506 19.424 138.25 19.2C138.01 18.96 137.714 18.84 137.362 18.84C137.33 18.84 137.274 18.84 137.194 18.84C137.13 18.84 137.082 18.84 137.05 18.84V18.6H138.802L138.706 20.088ZM142.066 31.488H142.114C142.13 31.84 142.258 32.144 142.498 32.4C142.738 32.64 143.042 32.76 143.41 32.76C143.442 32.76 143.49 32.76 143.554 32.76C143.634 32.76 143.682 32.76 143.698 32.76V33H141.946L142.066 31.488ZM156.249 18.6V33H152.793V18.6H156.249ZM152.865 31.488V33H151.113V32.76C151.113 32.76 151.161 32.76 151.257 32.76C151.353 32.76 151.409 32.76 151.425 32.76C151.793 32.76 152.113 32.64 152.385 32.4C152.657 32.144 152.793 31.84 152.793 31.488H152.865ZM156.201 31.488H156.249C156.265 31.84 156.401 32.144 156.657 32.4C156.929 32.64 157.257 32.76 157.641 32.76C157.641 32.76 157.681 32.76 157.761 32.76C157.857 32.76 157.913 32.76 157.929 32.76V33H156.201V31.488ZM156.201 20.112V18.6H157.929L157.905 18.84C157.905 18.84 157.865 18.84 157.785 18.84C157.705 18.84 157.657 18.84 157.641 18.84C157.257 18.84 156.929 18.96 156.657 19.2C156.401 19.44 156.265 19.744 156.249 20.112H156.201ZM152.865 20.112H152.793C152.793 19.744 152.657 19.44 152.385 19.2C152.113 18.96 151.785 18.84 151.401 18.84C151.401 18.84 151.353 18.84 151.257 18.84C151.161 18.84 151.113 18.84 151.113 18.84V18.6H152.865V20.112ZM164.474 18.6V33H161.018V18.6H164.474ZM170.09 32.04L170.642 33H164.426V32.04H170.09ZM169.274 25.392V26.352H164.426V25.392H169.274ZM170.354 18.6V19.56H164.426V18.6H170.354ZM171.626 28.584L170.714 33H166.562L167.306 32.04C167.994 32.04 168.602 31.904 169.13 31.632C169.674 31.344 170.138 30.944 170.522 30.432C170.906 29.904 171.202 29.288 171.41 28.584H171.626ZM169.274 26.304V28.416H169.034V28.224C169.034 27.696 168.866 27.256 168.53 26.904C168.21 26.552 167.77 26.368 167.21 26.352V26.304H169.274ZM169.274 23.328V25.44H167.21V25.392C167.77 25.376 168.21 25.192 168.53 24.84C168.866 24.472 169.034 24.024 169.034 23.496V23.328H169.274ZM170.354 19.512V22.056H170.114V21.84C170.114 21.136 169.922 20.584 169.538 20.184C169.17 19.784 168.634 19.576 167.93 19.56V19.512H170.354ZM170.354 18.24V18.816L167.834 18.6C168.298 18.6 168.786 18.56 169.298 18.48C169.81 18.384 170.162 18.304 170.354 18.24ZM161.066 31.488L161.186 33H159.41V32.76C159.41 32.76 159.458 32.76 159.554 32.76C159.65 32.76 159.706 32.76 159.722 32.76C160.074 32.76 160.37 32.64 160.61 32.4C160.866 32.144 161.002 31.84 161.018 31.488H161.066ZM161.066 20.112H161.018C161.002 19.744 160.866 19.44 160.61 19.2C160.37 18.96 160.074 18.84 159.722 18.84C159.706 18.84 159.65 18.84 159.554 18.84C159.458 18.84 159.41 18.84 159.41 18.84V18.6H161.186L161.066 20.112ZM187.638 26.976L187.902 30.6C187.598 31.112 187.174 31.576 186.63 31.992C186.086 32.392 185.422 32.712 184.638 32.952C183.854 33.192 182.942 33.312 181.902 33.312C180.11 33.296 178.566 32.992 177.27 32.4C175.974 31.808 174.974 30.96 174.27 29.856C173.582 28.736 173.238 27.376 173.238 25.776C173.238 24.208 173.582 22.872 174.27 21.768C174.958 20.648 175.95 19.792 177.246 19.2C178.542 18.592 180.094 18.288 181.902 18.288C182.99 18.288 183.998 18.392 184.926 18.6C185.87 18.808 186.654 19.072 187.278 19.392L187.302 23.208H187.11C186.71 21.736 186.078 20.704 185.214 20.112C184.35 19.52 183.326 19.224 182.142 19.224C180.974 19.224 179.998 19.496 179.214 20.04C178.446 20.584 177.862 21.344 177.462 22.32C177.078 23.296 176.886 24.44 176.886 25.752C176.886 27.08 177.078 28.232 177.462 29.208C177.862 30.184 178.438 30.944 179.19 31.488C179.942 32.032 180.846 32.32 181.902 32.352C183.038 32.352 183.974 32.176 184.71 31.824C185.462 31.472 186.054 30.904 186.486 30.12C186.934 29.336 187.254 28.288 187.446 26.976H187.638ZM194.685 18.6V33H191.229V18.6H194.685ZM200.301 32.04L200.853 33H194.637V32.04H200.301ZM199.485 25.392V26.352H194.637V25.392H199.485ZM200.565 18.6V19.56H194.637V18.6H200.565ZM201.837 28.584L200.925 33H196.773L197.517 32.04C198.205 32.04 198.813 31.904 199.341 31.632C199.885 31.344 200.349 30.944 200.733 30.432C201.117 29.904 201.413 29.288 201.621 28.584H201.837ZM199.485 26.304V28.416H199.245V28.224C199.245 27.696 199.077 27.256 198.741 26.904C198.421 26.552 197.981 26.368 197.421 26.352V26.304H199.485ZM199.485 23.328V25.44H197.421V25.392C197.981 25.376 198.421 25.192 198.741 24.84C199.077 24.472 199.245 24.024 199.245 23.496V23.328H199.485ZM200.565 19.512V22.056H200.325V21.84C200.325 21.136 200.133 20.584 199.749 20.184C199.381 19.784 198.845 19.576 198.141 19.56V19.512H200.565ZM200.565 18.24V18.816L198.045 18.6C198.509 18.6 198.997 18.56 199.509 18.48C200.021 18.384 200.373 18.304 200.565 18.24ZM191.277 31.488L191.397 33H189.621V32.76C189.621 32.76 189.669 32.76 189.765 32.76C189.861 32.76 189.917 32.76 189.933 32.76C190.285 32.76 190.581 32.64 190.821 32.4C191.077 32.144 191.213 31.84 191.229 31.488H191.277ZM191.277 20.112H191.229C191.213 19.744 191.077 19.44 190.821 19.2C190.581 18.96 190.285 18.84 189.933 18.84C189.917 18.84 189.861 18.84 189.765 18.84C189.669 18.84 189.621 18.84 189.621 18.84V18.6H191.397L191.277 20.112ZM208.064 18.288C208.384 18.288 208.768 18.304 209.216 18.336C209.68 18.368 210.136 18.408 210.584 18.456C211.032 18.488 211.424 18.536 211.76 18.6C212.112 18.648 212.352 18.696 212.48 18.744L212.168 21.672H211.952C211.952 20.936 211.696 20.352 211.184 19.92C210.672 19.488 209.936 19.272 208.976 19.272C208.208 19.272 207.584 19.44 207.104 19.776C206.64 20.112 206.392 20.56 206.36 21.12C206.328 21.408 206.376 21.672 206.504 21.912C206.648 22.136 206.84 22.336 207.08 22.512C207.336 22.688 207.616 22.864 207.92 23.04L211.688 25.368C212.328 25.688 212.832 26.152 213.2 26.76C213.568 27.368 213.728 28.104 213.68 28.968C213.632 29.864 213.368 30.64 212.888 31.296C212.424 31.952 211.776 32.456 210.944 32.808C210.128 33.144 209.16 33.312 208.04 33.312C207.352 33.312 206.712 33.256 206.12 33.144C205.528 33.032 205.016 32.88 204.584 32.688C204.168 32.496 203.848 32.28 203.624 32.04C203.496 31.72 203.44 31.336 203.456 30.888C203.472 30.424 203.544 29.968 203.672 29.52C203.8 29.056 203.96 28.672 204.152 28.368H204.344C204.296 29.088 204.424 29.752 204.728 30.36C205.048 30.968 205.512 31.456 206.12 31.824C206.728 32.176 207.456 32.352 208.304 32.352C209.232 32.352 209.928 32.136 210.392 31.704C210.856 31.272 211.088 30.768 211.088 30.192C211.088 29.76 210.944 29.376 210.656 29.04C210.384 28.688 209.928 28.344 209.288 28.008L205.88 25.848C205.08 25.432 204.496 24.88 204.128 24.192C203.776 23.504 203.648 22.752 203.744 21.936C203.824 21.168 204.048 20.512 204.416 19.968C204.8 19.424 205.304 19.008 205.928 18.72C206.552 18.432 207.264 18.288 208.064 18.288ZM212.48 18.504L212.456 18.936H209.888V18.504H212.48Z" fill="white"/>
</svg>
