<svg width="32" height="32" viewBox="0 0 32 32" fill="none" xmlns="http://www.w3.org/2000/svg">
<circle cx="16" cy="16" r="16" fill="white"/>
<path d="M24.2075 12.1393C24.099 12.3122 24.0348 12.5129 24.0213 12.7212C24.0077 12.9294 24.0454 13.1378 24.1305 13.3254C24.4034 14.0121 24.5959 14.7332 24.7026 15.4721C24.9857 17.3819 24.7209 19.3393 23.9435 21.0823C23.8491 21.2734 23.708 21.4331 23.5354 21.5439C23.3628 21.6547 23.1654 21.7125 22.9645 21.7109H9.04912C8.84713 21.7113 8.64892 21.6518 8.47622 21.5388C8.30352 21.4258 8.16301 21.2638 8.0701 21.0704C7.36594 19.5302 7.06262 17.8129 7.19247 16.1014C7.32232 14.39 7.88047 12.7486 8.80743 11.3523C9.73438 9.95602 10.9954 8.8571 12.456 8.17271C13.9166 7.48833 15.5221 7.24414 17.1013 7.46618C17.9004 7.56745 18.682 7.7911 19.4224 8.13038C19.5963 8.22215 19.7896 8.2628 19.9828 8.24822C20.1759 8.23364 20.3621 8.16435 20.5224 8.04736C20.6895 7.92868 20.8234 7.76313 20.9097 7.56851C20.996 7.37389 21.0314 7.15759 21.0122 6.94287C20.993 6.72815 20.9198 6.52316 20.8005 6.34995C20.6813 6.17674 20.5205 6.04188 20.3354 5.95987C18.2104 4.9774 15.8523 4.74189 13.596 5.28678C11.3397 5.83167 9.30009 7.12926 7.76677 8.99524C6.23345 10.8612 5.28443 13.2007 5.05453 15.6813C4.82462 18.162 5.32551 20.6577 6.48605 22.8139C6.67802 23.1724 6.95366 23.4705 7.28559 23.6786C7.61751 23.8867 7.99416 23.9975 8.37811 24H23.6135C24.0012 24.0016 24.3824 23.8928 24.7185 23.6845C25.0546 23.4763 25.3338 23.1759 25.5276 22.8139C26.3772 21.2263 26.874 19.4479 26.979 17.6185C27.084 15.789 26.7943 13.9582 26.1326 12.2698C26.0488 12.0773 25.9186 11.9127 25.7555 11.7932C25.5925 11.6736 25.4027 11.6035 25.2059 11.5902C25.0091 11.5768 24.8126 11.6208 24.637 11.7174C24.4614 11.814 24.313 11.9597 24.2075 12.1393Z" fill="url(#paint0_linear_63_2598)"/>
<path d="M14.445 15.2714C14.0322 15.7165 13.8002 16.3202 13.8002 16.9496C13.8002 17.2613 13.8572 17.57 13.9678 17.8579C14.0784 18.1459 14.2406 18.4075 14.445 18.6279C14.6494 18.8483 14.8921 19.0232 15.1591 19.1424C15.4262 19.2617 15.7125 19.3231 16.0015 19.3231C16.5853 19.3231 17.1453 19.073 17.5581 18.6279L23.7842 8.55821L14.445 15.2714Z" fill="url(#paint1_linear_63_2598)"/>
<defs>
<linearGradient id="paint0_linear_63_2598" x1="16" y1="5" x2="16" y2="24" gradientUnits="userSpaceOnUse">
<stop stop-color="#D73131"/>
<stop offset="1" stop-color="#580000"/>
</linearGradient>
<linearGradient id="paint1_linear_63_2598" x1="16" y1="5" x2="16" y2="24" gradientUnits="userSpaceOnUse">
<stop stop-color="#D73131"/>
<stop offset="1" stop-color="#580000"/>
</linearGradient>
</defs>
</svg>
